<svg xmlns="http://www.w3.org/2000/svg" height="1024" preserveAspectRatio="none" style="display: block;" version="1.1" viewBox="0 0 2048 2048" width="1024">
<path d="M 1197.91 739.597 C 1291.24 729.752 1374.87 797.43 1384.72 890.759 C 1394.56 984.089 1326.88 1067.73 1233.55 1077.57 C 1140.22 1087.41 1056.59 1019.73 1046.75 926.402 C 1036.91 833.076 1104.58 749.441 1197.91 739.597 z" fill="rgb(248,250,252)" transform="translate(0,0)"></path>
<path d="M 1205.71 793.468 C 1269.21 787.763 1325.32 834.591 1331.07 898.089 C 1336.82 961.587 1290.03 1017.73 1226.54 1023.53 C 1162.98 1029.33 1106.77 982.484 1101.01 918.923 C 1095.25 855.361 1142.14 799.179 1205.71 793.468 z" fill="rgb(11,18,32)" transform="translate(0,0)"></path>
<path d="M 1212.57 842.314 C 1247.32 839.72 1277.68 865.567 1280.67 900.281 C 1283.66 934.995 1258.15 965.649 1223.48 969.029 C 1200.69 971.25 1178.47 961.054 1165.3 942.333 C 1152.12 923.612 1150.03 899.255 1159.81 878.558 C 1169.59 857.861 1189.74 844.019 1212.57 842.314 z" fill="rgb(91,48,40)" transform="translate(0,0)"></path>
<path d="M 1208.68 853.351 C 1237.59 848.964 1264.52 868.986 1268.65 897.927 C 1272.78 926.868 1252.52 953.622 1223.54 957.492 C 1194.93 961.314 1168.58 941.361 1164.5 912.784 C 1160.43 884.206 1180.14 857.682 1208.68 853.351 z" fill="rgb(245,166,35)" transform="translate(0,0)"></path>
<path d="M 816.291 739.463 C 909.714 730.736 992.5 799.449 1001.13 892.88 C 1009.76 986.312 940.963 1069.03 847.523 1077.56 C 754.219 1086.08 671.65 1017.41 663.032 924.112 C 654.414 830.816 723.005 748.177 816.291 739.463 z" fill="rgb(248,250,252)" transform="translate(0,0)"></path>
<path d="M 816.758 793.744 C 880.087 785.106 938.399 829.52 946.9 892.867 C 955.4 956.215 910.86 1014.43 847.494 1022.79 C 784.322 1031.13 726.325 986.756 717.85 923.603 C 709.375 860.45 753.623 802.356 816.758 793.744 z" fill="rgb(11,18,32)" transform="translate(0,0)"></path>
<path d="M 823.129 840.106 C 859.652 834.319 894.014 859.049 900.125 895.519 C 906.235 931.989 881.81 966.569 845.395 973.002 C 808.522 979.516 773.411 954.716 767.223 917.786 C 761.036 880.856 786.146 845.966 823.129 840.106 z" fill="rgb(91,48,40)" transform="translate(0,0)"></path>
<path d="M 821.083 854.451 C 844.953 848.836 869.534 860.464 880.334 882.479 C 891.134 904.493 885.285 931.05 866.236 946.49 C 847.188 961.931 819.996 962.157 800.693 947.035 C 781.39 931.912 775.102 905.456 785.535 883.266 C 785.504 881.359 785.683 879.061 786.92 877.549 C 787.941 876.895 788.806 872.468 789.043 872.046 C 790.251 869.893 798.31 856.531 800.849 861.561 C 801.17 862.197 803.778 860.117 804.73 859.637 C 808.135 857.917 811.069 855.463 815.048 854.767 C 818.559 853.874 817.154 853.672 821.083 854.451 z" fill="rgb(245,166,35)" transform="translate(0,0)"></path>
<path d="M 785.535 883.266 C 785.504 881.359 785.683 879.061 786.92 877.549 C 787.941 876.895 788.806 872.468 789.043 872.046 C 790.251 869.893 798.31 856.531 800.849 861.561 C 801.17 862.197 803.778 860.117 804.73 859.637 C 808.135 857.917 811.069 855.463 815.048 854.767 C 818.559 853.874 817.154 853.672 821.083 854.451 C 805.457 858.126 792.365 868.738 785.535 883.266 z" fill="rgb(103,52,44)" transform="translate(0,0)"></path>
<path d="M 1259.96 1123.98 C 1295.32 1115.32 1311.65 1108.53 1341.87 1088.39 C 1339.27 1116.2 1335.47 1135.46 1328.93 1162.71 C 1328.17 1165.55 1327.39 1168.39 1326.58 1171.22 C 1296.67 1275.22 1224.03 1358.2 1135.94 1418.3 C 1100.71 1442.33 1061.25 1463.94 1024.07 1484.58 C 877.857 1408.45 745.183 1307.87 712.929 1135.85 C 710.054 1120.52 707.409 1104.18 706.794 1088.6 C 738.766 1109.83 751.376 1115.09 788.458 1124.32 C 803.983 1270.7 913.624 1328.63 1024.17 1398.66 C 1081.41 1358.33 1146.61 1325.98 1193.79 1272.64 C 1230.62 1231.01 1253.43 1179.18 1259.96 1123.98 z" fill="rgb(45,212,191)" transform="translate(0,0)"></path>
<path d="M 576.126 602.634 C 587.717 611.754 629.333 671.754 640.751 686.679 C 649.255 700.144 660.712 713.358 665.695 728.647 C 676.764 761.973 653.566 783.784 639.691 811.038 C 597.374 894.165 611.804 973.231 663.292 1047.05 C 662.618 1139.93 681.346 1224.83 738.755 1299.95 C 747.03 1310.13 756.951 1319.89 765.61 1330.26 C 722.146 1318.89 675.971 1291.33 644.912 1259.4 C 612.993 1226.39 591.08 1185.02 581.716 1140.07 C 574.275 1105.9 575.598 1072.38 575.571 1037.63 L 576.141 921.937 C 576.294 816.425 574.405 707.926 576.126 602.634 z" fill="rgb(248,250,252)" transform="translate(0,0)"></path>
<path d="M 1471.62 602.747 C 1472.59 608.99 1471.88 642.118 1471.87 650.936 L 1471.69 768.143 L 1471.83 983.201 C 1471.92 1021.32 1473.7 1083.42 1469.19 1118.95 C 1465.02 1152.17 1454.34 1184.25 1437.74 1213.33 C 1405.18 1270.57 1345.25 1313.19 1282.17 1330.62 C 1290.2 1321.06 1299.03 1312.05 1307.25 1302.2 C 1320.33 1286.71 1330.08 1270.19 1339.66 1252.49 C 1374.49 1188.14 1386.19 1118.34 1384.83 1045.77 L 1385.82 1044.55 C 1437.59 980.853 1447.04 886.581 1410.02 813.241 C 1400.79 794.973 1381.95 774.914 1380.72 756.627 C 1378.18 719.144 1410.74 680.96 1431.73 652.459 C 1444.23 635.491 1458.2 618.518 1471.62 602.747 z" fill="rgb(248,250,252)" transform="translate(0,0)"></path>
<path d="M 1003.93 630.5 C 1004.87 630.426 1005.82 630.362 1006.77 630.307 C 1076.71 626.198 1176.57 643.987 1229.93 691.074 C 1146.97 690.076 1080.48 720.055 1032.66 789.569 L 1024.42 802.743 C 991.417 747.593 937.674 707.164 873.898 694.923 C 855.923 691.473 838.402 690.985 820.203 690.03 C 871.366 648.456 939.351 634.057 1003.93 630.5 z" fill="rgb(45,212,191)" transform="translate(0,0)"></path>
<path d="M 1023.96 1014.59 C 1026.28 1015.87 1046.09 1045.95 1051.59 1051.98 C 1065.66 1067.31 1081.83 1080.56 1099.63 1091.33 C 1070.63 1125.81 1041.95 1172.39 1026.12 1214.63 C 1023.53 1213.7 1016.55 1194.09 1013.88 1188.82 C 996.375 1154.13 973.016 1122.99 950.057 1091.92 C 986.259 1066.6 999.657 1050.86 1023.96 1014.59 z" fill="rgb(45,212,191)" transform="translate(0,0)"></path>
<path d="M 1438.13 571.106 C 1438.7 571.031 1440.39 571.169 1441.04 571.203 C 1441.18 572.862 1346.9 699.531 1336.61 714.626 C 1316.21 703.089 1287.1 682.321 1265.45 668.866 C 1248.84 658.985 1232.11 649.315 1215.26 639.857 C 1234.48 632.068 1267.69 623.395 1288.96 616.771 C 1338.58 601.215 1388.3 585.993 1438.13 571.106 z" fill="rgb(45,212,191)" transform="translate(0,0)"></path>
<path d="M 606.622 569.993 C 612.526 571.005 626.459 575.551 633.001 577.523 C 652.077 583.317 671.106 589.26 690.089 595.353 C 737.815 610.46 785.717 625.008 833.784 638.994 C 817.999 648.003 802.146 657.568 786.47 666.817 C 760.754 682.522 736.621 696.58 712.306 714.354 L 649.169 628.295 C 636.096 610.76 618.023 588.052 606.622 569.993 z" fill="rgb(45,212,191)" transform="translate(0,0)"></path>
<metadata><recraft-signature>{"signed_by": "recraft", "signature_b64": "QQfyRH303VFAZ0scDgOd8sr3fy7f5x4ekdZndIpoWCaV0JKIAy3qhatDAD4utwmpSHnUd1cvM0FfnTPBI//3Bg==", "signing_algo": "Ed25519", "generation_timestamp": 1781193736, "identifier": "46b8128e-91d7-4ca7-9ba5-e01325fa2392"}</recraft-signature></metadata></svg>